<svg width="228" height="191" viewBox="0 0 228 191" fill="none" xmlns="http://www.w3.org/2000/svg">
<path d="M85.5 167.125H142.5M114 23.875C82.5198 23.875 57 45.2534 57 71.625C57 81.2904 60.428 90.285 66.3211 97.8023C75.3832 109.362 79.9103 115.138 80.4984 116.001C85.7307 123.681 84.7673 120.972 85.4258 129.797C85.4998 130.789 85.5 132.291 85.5 135.292C85.5 139.687 89.7533 143.25 95 143.25L133 143.25C138.247 143.25 142.5 139.687 142.5 135.292C142.5 132.29 142.5 130.789 142.574 129.797C143.233 120.972 142.264 123.681 147.496 116.001C148.084 115.138 152.619 109.362 161.681 97.8023C167.574 90.285 171.002 81.2904 171.002 71.625C171.002 45.2534 145.48 23.875 114 23.875Z" stroke="#F0AA19" stroke-width="2" stroke-linecap="round" stroke-linejoin="round"/>
</svg>
