<svg width="138" height="121" viewBox="0 0 138 121" fill="none" xmlns="http://www.w3.org/2000/svg">
<path d="M98.9956 97.4669C91.6258 90.2499 80.9178 85.7083 69 85.7083C57.0822 85.7083 46.3733 90.2499 39.0034 97.4669M69 105.875C40.4193 105.875 17.25 85.5599 17.25 60.5C17.25 35.4401 40.4193 15.125 69 15.125C97.5807 15.125 120.75 35.4401 120.75 60.5C120.75 85.5599 97.5807 105.875 69 105.875ZM69 70.5833C59.4731 70.5833 51.75 63.8116 51.75 55.4583C51.75 47.105 59.4731 40.3333 69 40.3333C78.5269 40.3333 86.25 47.105 86.25 55.4583C86.25 63.8116 78.5269 70.5833 69 70.5833Z" stroke="#F0AA19" stroke-width="2" stroke-linecap="round" stroke-linejoin="round"/>
</svg>
